<?xml version="1.0" encoding="iso-8859-1"?>
<!-- Generator: Adobe Illustrator 16.0.0, SVG Export Plug-In . SVG Version: 6.00 Build 0)  -->
<!DOCTYPE svg PUBLIC "-//W3C//DTD SVG 1.1//EN" "http://www.w3.org/Graphics/SVG/1.1/DTD/svg11.dtd">
<svg version="1.1" id="contact-email" xmlns="http://www.w3.org/2000/svg" xmlns:xlink="http://www.w3.org/1999/xlink" x="0px"
	 y="0px" width="432px" height="432px" viewBox="0 0 432 432" >
<g>
	<g>
		<g>
			<path style="fill-rule:evenodd;clip-rule:evenodd;fill:#FFFFFF;" d="M149.271,368.977c-9.086-1.418-18.164-2.892-27.262-4.235
				c-6.763-0.999-13.568-1.721-20.324-2.769c-6.434-0.997-12.164-8.139-11.914-17.09c0.383-13.657,1.116-27.424,3.289-40.888
				c4.211-26.101,9.39-52.05,14.522-77.991c0.897-4.537-0.062-5.702-4.443-6.342c-8.724-1.273-17.28-3.968-26.024-4.748
				c-9.667-0.859-13.976-5.973-15.756-14.782c-2.63-13.011-2.594-25.8,1.51-38.557c1.602-4.98,4.556-7.874,9.651-8.695
				c28.08-4.522,56.089-9.547,84.258-13.42c23.836-3.278,47.85-5.288,71.801-7.715c5.929-0.601,11.954-0.316,17.867-1.015
				c15.949-1.884,29.512-8.591,40.937-22.217c-13.166,51.049-13.455,100.601,0.529,150.581
				c-13.942-17.262-32.073-23.261-53.408-23.638c-16.501-0.293-32.957-3.049-49.438-4.657c-1.938-0.188-3.909-0.024-6.747-0.024
				c-0.912,10.365-2.457,20.62-2.595,30.892c-0.369,27.633-0.254,55.274-0.101,82.911c0.085,15.254-2.008,18.393-16.909,23.137
				c-0.565,0.18-0.981,0.831-1.467,1.263C154.589,368.977,151.93,368.977,149.271,368.977z M161.222,358.421
				c5.654-1.264,7.433-4.515,7.274-9.604c-0.381-12.158-0.999-24.337-0.662-36.483c0.711-25.611,2.038-51.202,2.883-76.809
				c0.067-2.052-1.625-4.16-2.5-6.24c-1.073,1.911-2.969,3.774-3.092,5.746c-1.455,23.377-3,46.758-3.786,70.161
				C160.749,322.778,161.222,340.398,161.222,358.421z"/>
			<path style="fill-rule:evenodd;clip-rule:evenodd;fill:#FFFFFF;" d="M360.636,193.504c-0.988,8.953-1.861,17.922-2.991,26.859
				c-2.394,18.923-6.279,37.458-15.436,54.456c-1.771,3.286-3.834,6.508-6.254,9.34c-9.11,10.656-20.385,10.526-29.125-0.431
				c-9.757-12.231-14.118-26.866-17.506-41.778c-1.842-8.106-2.924-16.385-4.435-25.072c15.597-1.987,30.433-4.165,45.339-5.644
				c6.493-0.644,10.271-3.931,12.126-9.523c4.01-12.099,3.872-24.384,0.076-36.51c-1.679-5.363-5.114-8.918-11.315-9.611
				c-12.493-1.398-24.94-3.231-37.398-4.953c-2.783-0.385-5.528-1.054-8.502-1.632c2.686-20.095,6.205-39.387,15.72-56.977
				c4.589-8.484,9.915-17.442,20.791-17.351c10.802,0.091,16.225,8.959,20.733,17.499c9.002,17.041,12.757,35.637,15.215,54.531
				c1.164,8.929,1.986,17.902,2.962,26.855C360.636,180.21,360.636,186.857,360.636,193.504z"/>
			<path style="fill-rule:evenodd;clip-rule:evenodd;fill:#FFFFFF;" d="M324.022,183.429c1.304-5.869,2.362-11.676,3.996-17.317
				c0.453-1.567,2.438-3.259,4.045-3.696c0.87-0.238,2.97,1.815,3.59,3.236c5.114,11.726,4.688,23.663,0.169,35.374
				c-1.666,4.317-6.079,4.301-7.726-0.133C326.068,195.428,325.364,189.471,324.022,183.429z"/>
			<path style="fill-rule:evenodd;clip-rule:evenodd;" d="M161.222,358.421c0-18.022-0.474-35.643,0.117-53.229
				c0.786-23.403,2.331-46.784,3.786-70.161c0.123-1.972,2.02-3.835,3.092-5.746c0.875,2.08,2.567,4.188,2.5,6.24
				c-0.845,25.606-2.172,51.197-2.883,76.809c-0.337,12.146,0.281,24.325,0.662,36.483
				C168.655,353.906,166.876,357.157,161.222,358.421z"/>
		</g>
	</g>
</g>
</svg>
