<?xml version="1.0" encoding="utf-8"?>
<!-- Generator: Adobe Illustrator 16.0.0, SVG Export Plug-In . SVG Version: 6.00 Build 0)  -->
<!DOCTYPE svg PUBLIC "-//W3C//DTD SVG 1.1//EN" "http://www.w3.org/Graphics/SVG/1.1/DTD/svg11.dtd">
<svg version="1.1" id="Layer_1" xmlns="http://www.w3.org/2000/svg" xmlns:xlink="http://www.w3.org/1999/xlink" x="0px" y="0px"
	 width="300px" height="300px" viewBox="0 0 300 300" style="enable-background:new 0 0 300 300;" xml:space="preserve">
<style type="text/css">
<![CDATA[
	.st0{fill:#FFFFFF;}
]]>
</style>
<path class="st0" d="M244.21,102.55l2.28-0.06l-0.18-7.18c-0.03-6.15-2.42-11.97-6.74-16.39c-4.42-4.53-10.29-7.02-16.53-7.02H63.91
	v0.01c-0.26-0.01-0.51-0.01-0.77-0.01c-12.97,0-23.53,10.56-23.53,23.53v93.84c0,21,16.97,38.13,37.93,38.43c0.09,0,0.18,0,0.27,0
	h145.51c21.21,0,38.46-17.25,38.46-38.46v-86.69H244.21z M98.85,189.24c0,11.44-9.31,20.75-20.75,20.75
	c-11.46,0-20.78-9.3-20.78-20.72V95.43c0-3.21,2.61-5.82,5.82-5.82c3.21,0,5.82,2.61,5.82,5.82v92.09c0,4.89,3.96,8.85,8.85,8.85
	c4.89,0,8.85-3.96,8.85-8.85V95.43c0-2.01-0.25-3.96-0.73-5.82h137.1c3.02,0,5.57,2.66,5.57,5.82l0.17,7.12H98.85V189.24z
	 M244.08,189.24c0,11.44-9.31,20.75-20.75,20.75H110.48c3.85-5.99,6.09-13.11,6.09-20.75v-68.98h127.51V189.24z"/>
</svg>
