<?xml version="1.0" encoding="utf-8"?>

<!-- The icon can be used freely in both personal and commercial projects with no attribution required, but always appreciated. 
You may NOT sub-license, resell, rent, redistribute or otherwise transfer the icon without express written permission from iconmonstr.com -->

<!DOCTYPE svg PUBLIC "-//W3C//DTD SVG 1.1//EN" "http://www.w3.org/Graphics/SVG/1.1/DTD/svg11.dtd">
<svg version="1.1" xmlns="http://www.w3.org/2000/svg" xmlns:xlink="http://www.w3.org/1999/xlink" x="0px" y="0px"
	 width="512px" height="512px" viewBox="0 0 512 512" enable-background="new 0 0 512 512" xml:space="preserve">
<path id="newspaper-11-icon" d="M301.285,167.153H144.953v16.889h156.332V167.153z M182.877,198.751h-37.924v16.887h37.924V198.751z
	 M182.877,230.837h-37.924v16.889h37.924V230.837z M301.285,198.751h-39.609v16.887h39.609V198.751z M301.285,230.837h-39.609
	v16.889h39.609V230.837z M301.285,262.925H144.953v16.889h156.332V262.925z M244.928,198.751h-46.148v48.975h46.148V198.751z
	 M225.604,146.368l-8.846-37.266h9.693l4.617,25.822l5.17-25.822h9.449l4.576,25.344l4.777-25.344h9.268l-9.619,37.266h-9.59
	l-4.578-24.65l-5.221,24.65H225.604z M214.471,138.771h-14.969v-7.803h13.402v-7.545h-13.402v-6.721h14.211v-7.6h-23.322v37.266
	h24.08V138.771z M277.006,139.31c-2.881,0-6.223-0.83-8.939-2.223l-0.475-0.242l-1.881,7.641l0.283,0.156
	c1.979,1.092,6.115,2.268,10.525,2.268c11.16,0,15.121-6.311,15.121-11.715c0-5.227-3.092-8.803-9.73-11.258
	c-4.863-1.844-6.48-2.787-6.48-4.738c0-1.877,1.912-3.09,4.873-3.09c2.607,0,5.109,0.566,7.438,1.688l0.453,0.219l2.068-7.482
	l-0.328-0.15c-2.766-1.242-5.951-1.873-9.469-1.873c-8.494,0-14.201,4.578-14.201,11.391c0,5.025,3.459,8.777,10.277,11.152
	c4.354,1.559,5.824,2.756,5.824,4.736C282.365,138.026,280.412,139.31,277.006,139.31z M161.512,120.886l13.27,25.482h9.318v-37.266
	h-8.41v22.842l-12.301-22.842h-10.287v37.266h8.41V120.886z M301.285,295.153H144.953v16.887h156.332V295.153z M301.285,295.153
	H144.953v16.887h156.332V295.153z M301.285,327.241H144.953v16.889h156.332V327.241z M381.318,339.39
	c1.461,6.131-6.674,9.973-9.375,3.455c-3.289-7.939-8.562-41.668-13.176-75.625c-2.463-18.16-26.768-15.93-26.708,2.838
	c0.091,29.207,0.077,53.525,0.008,96.799c-0.056,36.893,16.936,37.623,29.321,79.016c2.122,7.092,3.938,14.842,5.435,22.402
	l61.559-21.479c-21.455-41.965-11.122-75.113-8.974-102.258c2.932-37.094-6.93-40.691-52.683-85.262
	C369.483,278.853,375.198,313.714,381.318,339.39z M312.07,367.243H118.879V83.394h208.48V240.29
	c10.788-7.121,24.6-7.369,35.261-0.959V71.935c0-15.58-12.629-28.209-28.209-28.209H111.827c-15.579,0-28.208,12.629-28.208,28.209
	v306.77c0,15.578,12.63,28.209,28.208,28.209h208.726C315.792,397.183,312.101,385.345,312.07,367.243z M223.119,394.79
	c-4.139,0-7.493-3.354-7.493-7.492c0-4.137,3.354-7.492,7.493-7.492s7.493,3.355,7.493,7.492
	C230.612,391.437,227.258,394.79,223.119,394.79z"/>
</svg>
