<?xml version="1.0" encoding="UTF-8"?>
<!DOCTYPE svg PUBLIC "-//W3C//DTD SVG 1.1//EN" "http://www.w3.org/Graphics/SVG/1.1/DTD/svg11.dtd">
<!-- Creator: CorelDRAW -->
<svg xmlns="http://www.w3.org/2000/svg" xmlns:xlink="http://www.w3.org/1999/xlink" xmlns:svg="http://www.w3.org/2000/svg" xmlns:dc="http://purl.org/dc/elements/1.1/" xmlns:cc="http://web.resource.org/cc/" xmlns:rdf="http://www.w3.org/1999/02/22-rdf-syntax-ns#" xml:space="preserve" width="210mm" height="297mm" style="shape-rendering:geometricPrecision; text-rendering:geometricPrecision; image-rendering:optimizeQuality; fill-rule:evenodd; clip-rule:evenodd" viewBox="0 0 210 297">
 <defs>
  <style type="text/css">
   <![CDATA[
    .fil2 {fill:white}
    .fil0 {fill:#c6342e}
    .fil3 {fill:#23201D;fill-rule:nonzero}
    .fil1 {fill:#DDDDDC;fill-rule:nonzero}
    .fil4 {fill:white;fill-rule:nonzero}
   ]]>
  </style>
 </defs>
 <g id="Слой_x0020_1">
  <metadata id="CorelCorpID_0Corel-Layer"/>
  <polygon class="fil0" points="129.454,191.608 78.7304,191.608 78.7304,199.524 40.2836,199.524 40.2836,223.916 129.131,223.916 169.355,223.916 169.355,207.116 129.451,207.116 "/>
  <path class="fil0" d="M100.457 69.8825c-0.004,0.3782 -0.1479,1.0427 0.2385,1.0063 4.2159,-0.3986 9.06,0.5516 13.4623,2.2256 0.2543,0.0968 0.8509,0.158 0.9994,-0.4857 0.598,-15.8641 14.2524,-18.6438 25.3124,-12.575 11.06,6.0688 11.981,22.1157 -4.1505,28.4061 -0.8692,0.4191 -0.3187,1.3779 0.0558,1.9514 7.5907,11.6274 0.9171,33.3308 -14.2523,33.2019 -0.6804,0.1055 -0.6501,1.5039 -0.322,1.8785 5.0948,5.8187 6.1098,13.5629 -0.399,21.4817 -0.2026,0.2558 -0.1216,0.5857 0.059,0.7678 13.7839,13.9022 18.4114,26.8626 2.8959,37.7495 -0.3332,0.2583 -0.4462,0.6282 -0.267,0.8437 7.2856,8.7747 -6.4044,12.8013 -13.201,16.6852 -0.8916,0.554 -3.9076,-0.4264 -4.8797,-0.5998 -0.7012,0.0666 -0.7354,0.1522 -1.0117,0.2601 -2.9984,1.1744 -5.3705,0.9229 -7.128,-0.663 -1.5578,-1.3165 -2.3274,-2.4501 -3.8856,-3.7662 -1.0671,-1.2495 -0.8466,-3.0344 0.9037,-3.6482 1.9425,-0.9534 0.7549,-3.5946 -1.7729,-1.6118 -3.3125,3.2441 -10.8715,1.891 -12.5672,-1.2215 -0.331,-0.6076 0.6951,-1.12 1.0427,-1.6798 1.3182,-1.4477 0.6584,-2.4817 -2.176,-3.0624 -6.1051,-2.6674 -8.7635,-14.9604 -5.1265,-18.1196 -1.488,-2.5735 -2.8206,-5.4996 -3.7154,-8.7232 -0.8513,1.4524 -1.4255,2.3547 -2.2015,3.3599l-0.1335 0.1231c-0.3144,0.29 -4.2814,-0.5749 -6.267,-1.3582 -1.4416,-0.5688 -3.6309,-2.1637 -4.1436,-2.8278l0.1011 0.3396c-0.0032,-0.0518 -0.0126,-0.1008 -0.0298,-0.1457 -3.9227,-10.2696 12.3501,-33.796 22.2052,-41.1686 0.7145,-0.8275 0.4048,-1.6003 -0.9307,-2.3187 -15.9225,-6.121 -14.7582,-26.278 -1.977,-36.1281 1.2383,-1.0451 0.9725,-1.7046 -0.3231,-2.1 -6.829,-4.7059 -9.6421,-12.5211 -4.3879,-18.411 4.3206,-5.0049 9.4964,-7.7745 16.7935,-7.9084 7.9619,-0.146 15.5496,6.5473 11.1794,18.2423zm-32.8195 94.5963c-1.2099,1.4596 -2.2608,2.2979 -3.0085,2.4198 -0.445,0.0727 -0.8983,0.0849 -1.3531,0.0461l1.6676 -2.8128c0.7325,0.1641 1.3884,0.1828 1.8518,0.267 0.3288,0.0597 0.6091,0.0827 0.8422,0.0799zm-5.3165 2.3119c-0.7177,-0.168 -1.4236,-0.4476 -2.0874,-0.8016l2.2029 -2.5828c0.5354,0.1881 1.0758,0.3561 1.5949,0.4982l-1.7104 2.8862zm-2.8732 -1.2668c-0.223,-0.1457 -0.4396,-0.2993 -0.6472,-0.4583 -0.195,-0.1494 -0.3828,-0.3044 -0.562,-0.4627l1.9065 -2.1612c0.435,0.2216 0.9052,0.4317 1.3898,0.626l-2.0871 2.4562zm-1.8553 -1.5478c-0.2145,-0.2288 -0.4102,-0.4612 -0.5829,-0.6933 -0.5195,-0.6979 0.354,-1.8892 0.7451,-2.7825l-0.0003 0.0011c0.2889,0.3745 1.0127,1.1401 1.5859,1.4924l-1.7478 1.9823z"/>
  <path class="fil1" d="M101.295 90.2893c4.0885,0 7.7953,1.5765 10.5642,3.8618 3.075,2.5372 5.0042,5.9652 5.0387,9.1053l0 0.0044 0.0004 0.1849 0 0.0021c-0.0191,3.7288 -1.7874,6.8434 -4.5404,9.0327 -2.7207,2.1644 -6.4117,3.4218 -10.316,3.4647l-0.0043 0 -0.2979 0.0007 -0.0022 0c-4.1526,-0.0216 -8.1997,-1.3395 -11.187,-3.6791 -2.7847,-2.1807 -4.6559,-5.2456 -4.8588,-8.9787 -0.0119,-0.2277 -0.0184,-0.4368 -0.0184,-0.6257 0,-3.5611 1.6669,-6.553 4.3307,-8.7056 2.6257,-2.1219 6.2271,-3.4218 10.1447,-3.6352 0.3961,-0.0212 0.779,-0.0323 1.1463,-0.0323zm-16.6233 68.1603c0.9729,-0.018 1.8525,-0.4253 2.4919,-1.0736 0.1921,-0.1947 0.363,-0.4116 0.5083,-0.6465 -0.0813,-0.2692 -0.1399,-0.5487 -0.173,-0.8358 -0.8635,0.082 -1.6388,0.4713 -2.2177,1.0581 -0.2911,0.2954 -0.5332,0.6415 -0.7124,1.0239 0.0421,0.1551 0.0763,0.313 0.1029,0.4739zm36.9618 -10.5144c3.9948,3.8508 9.4697,9.8939 11.5837,16.6684 2.2945,7.0562 0.7017,14.6051 -9.1772,21.4141 0.0395,0.0943 0.0801,0.1781 0.1219,0.249 0.7037,0.8645 0.9117,1.1117 1.3369,1.9719 0.1112,0.2256 0.2375,0.4713 0.3717,0.8333 0.39,1.08 0.4529,1.8032 0.299,2.8368 -0.5732,4.9578 -11.8663,9.2665 -15.3839,11.1244 -0.9466,0.34 -3.7823,-0.3421 -4.657,-0.672 -0.0442,-0.0166 -0.0856,-0.0407 -0.1248,-0.0709 -0.5746,0.2166 -1.7608,0.6616 -1.8554,0.6836l0 0.0003c-1.3596,0.2771 -2.5408,0.2861 -3.6359,0.0324 -1.0999,-0.2551 -2.1004,-0.7717 -3.0956,-1.5434 -1.0095,-0.784 -2.2105,-1.8105 -2.9847,-2.8322 -0.8959,-1.1815 -1.2467,-2.371 -0.2882,-3.292 0.3508,-0.3375 0.6609,-0.557 0.9221,-0.7433 0.2673,-0.1896 0.784,-0.5883 0.8977,-0.7951 -0.0321,-0.0936 -0.0612,-0.1889 -0.0885,-0.2853 -0.1745,-0.616 -0.3926,-1.1244 -0.6045,-1.6187 -0.4475,-1.0437 -0.8732,-2.0363 -0.9232,-3.8943 -3.1193,-0.8882 -6.1723,-2.5702 -8.9761,-4.9178 -2.9646,-2.4821 -5.5644,-6.0047 -7.8619,-9.5475 -1.4194,-2.1928 -3.3291,-4.5292 -4.3929,-7.0484 -1.541,-2.8347 -2.0914,-5.097 -2.9017,-7.695 -0.7094,-3.1891 -1.1034,-6.3202 -1.2991,-9.4082 -0.2019,-3.188 -0.0374,-6.3491 0.4623,-9.4007 0.4835,-2.9517 2.1946,-8.1127 4.6016,-11.8735 1.6294,-2.5461 3.5999,-4.4796 5.7849,-4.7714 0.0712,-0.2266 0.1853,-0.4663 0.3371,-0.7156 0.34,-0.5591 0.8868,-1.2074 1.564,-1.8831 1.611,-1.6064 3.8985,-3.352 6.0622,-4.517 -4.499,-0.1472 -7.8813,-1.6241 -10.5375,-3.627 -4.5649,-3.4412 -6.6117,-8.6376 -6.9305,-12.1544 -0.2533,-2.8012 0.4907,-5.2129 1.837,-7.1686 1.5352,-2.2299 3.8547,-3.8601 6.3664,-4.7937 2.8375,-1.0545 6.2389,-1.2172 8.4184,-1.1884 -0.9458,-0.358 -2.1572,-0.7544 -3.2794,-1.1214 -2.1626,-0.7073 -4.0493,-1.3244 -3.7895,-2.1094l0.0021 0c1.038,-3.129 4.7135,-6.8772 10.8028,-8.8707 4.5386,-1.4863 10.4358,-2.0116 17.594,-0.5872 7.1509,1.4229 12.9405,4.3026 17.1759,7.4888 5.6874,4.2785 8.5969,9.1805 8.2932,11.9361 -0.0352,0.6433 -0.2234,0.6354 -1.0174,0.7181 -1.4158,0.1472 -4.0551,-0.1374 -6.1774,-0.2688l-0.2875 -0.0187c5.0927,1.9389 7.627,5.1542 8.4163,8.6905 0.4145,1.8572 0.3433,3.7957 -0.0946,5.6774 -0.4342,1.8658 -1.2315,3.6841 -2.2727,5.3164 -2.7977,4.3868 -7.3841,7.4363 -11.4856,6.5584 -0.1364,-0.0075 -0.2576,0.0911 -0.3663,0.1792 0.7552,0.7865 1.3251,2.6966 1.2517,3.6874 -0.0378,0.5123 -0.3652,-0.3986 -0.4325,-0.3752 -0.1795,0.0633 -0.8483,-2.5793 -1.9766,-3.0308 -0.2587,-0.0986 -0.5274,-0.217 -0.8181,-0.3454 -1.3999,-0.6178 -3.3719,-1.4881 -6.6574,-1.0193 -2.126,0.303 -6.3217,1.5643 -9.7252,4.2062 -2.2094,1.7147 -4.0778,4.0126 -4.7981,7.0053l-0.0438 0.1828 -0.1436 0.1144c-0.898,0.7166 -1.5222,1.5434 -1.9827,2.3709 -0.4681,0.8415 -0.7757,1.7014 -1.0301,2.4534 -0.0752,0.5018 -0.7696,0.5029 -0.993,0.0654 -0.259,-0.5242 -0.6364,-0.8886 -1.0581,-1.1063 -0.3299,-0.1705 -0.6883,-0.2547 -1.0372,-0.2576 -0.3476,-0.0032 -0.6897,0.0727 -0.9887,0.2202 -0.3321,0.1641 -0.6113,0.4188 -0.7836,0.7527 -0.3656,0.522 -0.9131,0.1521 -0.9887,-0.0781 -0.5688,-1.7075 -1.1995,-3.0999 -1.8741,-3.918 -0.3069,-0.372 -0.6087,-0.6102 -0.8991,-0.6796 -0.2489,-0.0598 -0.522,0.0129 -0.8196,0.245 -0.4223,0.3292 -0.8713,0.9411 -1.3459,1.8841 -0.2015,0.4062 -0.7962,0.362 -0.9865,-0.059 -0.1702,-0.4677 -0.3986,-0.789 -0.6534,-0.9815 -0.2104,-0.1593 -0.4436,-0.2302 -0.6728,-0.223 -0.2428,0.0075 -0.4936,0.1007 -0.7246,0.2648 -0.3169,0.2256 -0.3263,0.8318 -0.7731,1.0473 -0.4008,0.1932 -0.7858,0.1896 -1.0373,-0.2508 -0.2903,-0.5087 0.0853,-1.2117 0.1076,-1.8708 0.0694,-2.049 0.149,-4.3854 1.424,-6.5977 -1.7633,0.2296 -3.4503,1.941 -4.8977,4.2023 -2.313,3.6136 -3.9558,8.566 -4.4195,11.3964 -0.4846,2.9595 -0.6437,6.0263 -0.4479,9.1207 0.0302,0.476 0.0687,0.9531 0.1158,1.4302 0.3011,0.0266 0.7296,0.0356 1.1164,0.0439 0.267,0.0053 0.5185,0.0104 0.6354,0.0158 0.2425,0.0111 0.4886,0.0029 0.7332,-0.0051 0.2098,-0.0071 0.9146,-0.023 1.3395,-0.023 0.8415,-0.7983 1.9716,-1.2887 3.2135,-1.2887 1.2981,0 2.4746,0.5353 3.3262,1.3988 0.1928,0.1954 0.3688,0.4076 0.526,0.6347l0.1022 -0.1069c0.8516,-0.8635 2.028,-1.3988 3.3261,-1.3988 1.2981,0 2.4746,0.5353 3.3262,1.3988 0.2504,0.254 0.4728,0.5364 0.6616,0.8423 0.0799,-0.0947 0.163,-0.1861 0.2497,-0.2738 0.8516,-0.8635 2.0281,-1.3989 3.3262,-1.3989 1.2981,0 2.4746,0.5354 3.3262,1.3989 0.0597,0.0608 0.118,0.123 0.1748,0.187 0.417,0.0206 1.5035,0.0306 1.8892,0.0198 0.2522,-0.0068 0.49,-0.0136 0.6005,-0.0136 0.2295,0 0.4619,-0.0198 0.6926,-0.0389l0.0802 -0.0068c-0.1831,-1.9975 -0.2756,-4.0285 -0.254,-6.0271 0.0561,-5.1865 0.8786,-10.1731 2.8541,-13.8396 0.9013,-1.6734 2.081,-3.0797 3.4586,-4.3361 1.3546,-1.2351 2.9063,-2.3278 4.5753,-3.3902 1.0355,-0.6595 2.2601,-1.2186 3.4651,-1.5956 1.1865,-0.3717 2.3716,-0.5724 3.3621,-0.5271 0.3439,0.0155 0.68,0.0504 1.0059,0.1018l0.0022 0c2.9631,0.4695 5.0779,2.3548 6.4048,5.0114l-0.0018 0.0007c1.2877,2.5782 2.5469,5.3499 2.1752,9.3068 0.1033,1.9763 -1.256,5.142 -2.1288,6.7236 -0.6123,1.1092 -1.3758,2.1328 -2.2123,3.2038 -0.0777,0.0997 -0.0543,0.381 -0.0313,0.6617 0.0144,0.1729 0.0287,0.3457 0.0268,0.5186zm2.1648 37.3368c9.4381,-6.541 10.7137,-13.8384 8.6565,-20.4308 -1.2319,-3.9477 -3.6498,-7.6559 -6.2349,-10.8096 -0.4964,0.3945 -1.6412,1.2151 -2.3102,1.6376 -0.8383,0.5289 -1.8018,1.0919 -2.7513,1.624 -1.0548,0.5915 -2.1655,1.1193 -3.2006,1.5474 -0.9904,0.4095 -1.9122,0.7272 -2.6526,0.9218 0.5404,1.1031 1.0682,2.6203 0.5199,4.6991 -0.1299,0.4932 -0.3077,0.7732 -0.5224,0.9433 0.2774,0.2512 0.5274,0.5095 0.7307,0.7808 0.3292,0.4385 0.5375,0.9102 0.5479,1.4358 0.0043,0.208 -0.028,0.3915 -0.0611,0.5775 -0.0195,0.1104 -0.04,0.2234 -0.0493,0.3342 -0.0688,0.7818 -0.4778,1.3402 -0.8959,1.9112 -0.1144,0.1561 -0.231,0.3148 -0.3353,0.4727l-0.0007 -0.0003 -0.0389 0.059c-0.1381,0.2097 -0.272,0.413 -0.4188,0.6087 1.632,0.4458 2.9308,1.1527 4.112,2.1206 2.4824,2.0331 3.9115,5.088 4.3922,8.7415 0.0855,0.6503 0.2648,1.8846 0.5128,2.8255zm1.6974 -32.105c-0.3674,-0.4295 -0.7362,-0.8472 -1.1036,-1.2526 -0.3497,0.4556 -1.0334,1.0644 -1.4736,1.3889 -0.6483,0.4774 -1.4287,0.8958 -2.0659,1.1844l0 -0.0004 -0.408 0.1878c-1.0214,0.4738 -2.3051,1.0689 -3.6629,1.2046 -0.7483,1.0566 -1.4632,1.9215 -2.1489,2.5814 0.0291,0.0669 0.0856,0.1784 0.1597,0.3198 0.7293,-0.172 1.6985,-0.4979 2.7566,-0.9354 0.9873,-0.4084 2.0554,-0.9167 3.0826,-1.4927 0.9495,-0.5321 1.9,-1.0869 2.7045,-1.5946 0.6439,-0.4066 1.7128,-1.2295 2.1595,-1.5912zm-1.6669 -1.866c-0.3266,-0.3509 -0.6511,-0.6917 -0.9711,-1.0213 -0.3771,0.5026 -1.2236,1.08 -1.7475,1.3959l-0.0007 -0.0014 -0.2069 0.1259 0.0008 0.0014c-0.3332,0.2048 -0.6552,0.3764 -0.9887,0.5278 -0.3213,0.1458 -0.6609,0.2753 -1.0401,0.4012l-0.0288 -0.0867c-0.4692,0.7991 -0.9239,1.5355 -1.364,2.2065 0.934,-0.2238 1.8364,-0.6422 2.5872,-0.9905l0.4113 -0.1892 0.0032 -0.0018c0.5922,-0.2684 1.3135,-0.6541 1.9047,-1.0894 0.369,-0.2721 1.1345,-0.907 1.4406,-1.2784zm-1.5614 -1.6222c-0.2943,-0.2961 -0.5833,-0.5818 -0.8661,-0.8574 -0.2694,0.4541 -0.499,0.5472 -0.7271,0.6391 -0.032,0.0126 -0.0644,0.0262 -0.1321,0.1525 -0.3612,0.6724 -0.7148,1.315 -1.0602,1.9259l0.0636 -0.0284c0.2954,-0.1339 0.5843,-0.2886 0.8873,-0.4746l0.0032 0 0.2101 -0.1277 0 -0.0018c0.4122,-0.2488 1.2595,-0.8489 1.6213,-1.2276zm-27.5186 47.5615c0.0997,-0.0629 0.204,-0.1245 0.3108,-0.1849l0.0008 0.0011c0.3198,-0.1824 0.6472,-0.3472 0.9706,-0.5059 0.4005,-0.1968 0.7876,-0.426 1.1485,-0.6501 -0.099,-0.1155 -0.1943,-0.2342 -0.2857,-0.3555 -0.2436,-0.1838 -0.4853,-0.3633 -0.726,-0.5371 -0.1515,0.1446 -0.3235,0.2666 -0.5199,0.4058 -0.2256,0.1608 -0.4926,0.3504 -0.8059,0.6516 -0.3094,0.2972 -0.2994,0.7102 -0.0932,1.175zm10.6437 4.1011c-0.7436,-0.6825 -1.6247,-1.2279 -2.5346,-1.7532 -0.4951,0.3731 -1.0567,0.7944 -1.6701,1.1589 -0.335,0.1986 -0.6671,0.4004 -0.9621,0.6001 -0.1738,0.1173 -0.3364,0.2353 -0.4824,0.3537 0.3241,0.1385 0.654,0.2475 0.9929,0.3259 0.9542,0.2213 1.9972,0.2105 3.2114,-0.037l0.0018 0c0.0929,-0.0187 0.9286,-0.3379 1.4989,-0.5573l-0.0558 -0.0911zm-6.344 0.013c0.2209,-0.2058 0.4864,-0.4069 0.7757,-0.6026 0.3155,-0.2134 0.6562,-0.4206 0.9966,-0.6224 0.4659,-0.2764 0.9081,-0.5944 1.3136,-0.8963 -0.7664,-0.3525 -1.5532,-0.7418 -2.3052,-1.1919 -0.4472,0.2813 -0.9383,0.5792 -1.461,0.8365 -0.3465,0.1702 -0.6915,0.3443 -1.006,0.522 -0.1795,0.1022 -0.3482,0.2051 -0.5004,0.3091 0.3925,0.3436 0.794,0.6684 1.1689,0.9595 0.3386,0.2626 0.676,0.4911 1.0178,0.6861zm-2.7289 -2.14c0.2072,-0.1525 0.4407,-0.2989 0.6893,-0.4396 0.3281,-0.1857 0.6851,-0.3663 1.0434,-0.5418 0.3824,-0.1886 0.7537,-0.4037 1.1038,-0.6185l-0.2015 -0.1385 -0.0021 0c-0.4541,-0.3184 -0.8826,-0.6638 -1.2715,-1.0423 -0.4091,0.2569 -0.8566,0.5274 -1.3341,0.7616 -0.332,0.163 -0.6584,0.3271 -0.934,0.4839l0 0.0015c-0.1054,0.0594 -0.2061,0.1194 -0.3018,0.1799 0.0385,0.0547 0.0788,0.1094 0.1205,0.1644 0.3008,0.3968 0.6789,0.8001 1.088,1.1894zm-1.9572 -12.5171c0.0817,-1.8795 0.4159,-3.6118 0.9775,-5.1855 0.6807,-1.9068 1.696,-3.5863 2.9995,-5.0196 1.4506,-1.5949 3.233,-2.879 5.0981,-3.7979 0.9383,-0.4623 1.8993,-0.8332 2.8523,-1.1056 -0.7699,-0.4673 -1.6658,-1.3513 -2.5037,-2.4968 -1.0408,-1.4233 -2.0457,-3.2794 -2.6401,-5.2366 -0.155,-0.5102 -0.3047,-1.0394 -0.4497,-1.5849 -1.4474,0.1069 -2.9491,0.1803 -4.4764,0.2127 -1.5463,0.0331 -3.1049,0.0233 -4.6433,-0.0364 -0.1263,0.1677 -0.2633,0.3256 -0.4101,0.4746 -0.8516,0.8634 -2.0281,1.3988 -3.3262,1.3988 -1.2981,0 -2.4746,-0.5354 -3.3262,-1.3988 -0.2604,-0.2641 -0.4907,-0.5591 -0.6846,-0.8793 -0.1425,0.1968 -0.2994,0.3821 -0.4692,0.5544 -0.8516,0.8635 -2.0281,1.3988 -3.3261,1.3988 -1.2981,0 -2.4746,-0.5353 -3.3262,-1.3988 -0.3443,-0.349 -0.635,-0.752 -0.8595,-1.1948 -1.0938,0.0453 -2.3724,0.0399 -3.3859,0.0194 0.5612,1.4499 1.0948,3.0998 1.7852,4.5213 1.193,2.4552 2.8538,4.6175 4.349,6.9701 2.1256,3.6963 4.7232,6.8149 7.5813,9.2078 2.5714,2.1526 5.3507,3.7147 8.1843,4.5771zm13.595 -14.507c-0.4591,0.1432 -1.3783,0.4342 -1.46,0.458 -0.8606,0.2518 -1.7313,0.5915 -2.5836,1.0117 -1.7499,0.862 -3.4204,2.0651 -4.7779,3.5575 -1.2063,1.3269 -2.1471,2.8843 -2.78,4.657 -0.6174,1.7298 -0.943,3.6636 -0.9383,5.7852 0.004,1.8561 0.4127,2.8096 0.8441,3.8151 0.2252,0.525 0.4565,1.0646 0.6504,1.7497 0.4023,1.4193 1.4197,2.5001 2.6599,3.37l-0.0007 0.0011c1.2826,0.8991 2.8275,1.5855 4.1939,2.186 1.1485,0.5051 1.7464,1.1132 2.2667,1.6417 0.2925,0.2979 0.5576,0.5674 0.8742,0.7426l0.0022 0.0018c0.9239,0.5116 1.4664,0.7444 1.9082,0.8041 0.4102,0.0557 0.8092,-0.0443 1.4226,-0.2011 1.8615,-0.4757 14.6445,-5.9526 14.8596,-9.7569 -0.1072,-1.0934 -0.0992,-1.968 -0.2737,-2.693 -0.3526,-1.0358 -0.9261,-1.383 -1.5906,-2.5101 -0.4908,-0.8329 -0.8639,-3.0718 -1.0153,-4.2253 -0.4451,-3.3823 -1.7496,-6.1954 -4.0087,-8.0458 -1.1621,-0.9523 -2.5836,-1.6542 -4.2778,-2.0536 -0.0244,-0.0191 -0.019,-0.0176 -0.0565,0.0015 -0.1011,0.0514 -0.191,0.1313 -0.2968,0.1946 -0.0446,0.168 -0.1299,0.3619 -0.2432,0.5605 -0.1932,0.3389 -0.4749,0.7174 -0.7652,1.0078 -0.3318,0.3317 -0.7009,0.567 -1.0283,0.563 -0.091,-0.001 -0.1788,-0.0194 -0.2605,-0.055 -0.6184,-0.1331 -1.3805,-0.6357 -2.072,-1.2484 -0.4655,-0.4124 -0.9062,-0.8801 -1.2527,-1.3197zm0.3882 -0.6721c0.331,0.4605 0.8163,0.9912 1.3395,1.455 0.6249,0.5537 1.2894,1.0005 1.778,1.0905l0.0604 0.0111 0.0378 0.0216c0.1108,-0.0072 0.2993,-0.1533 0.5008,-0.3548 0.2393,-0.2392 0.4685,-0.5439 0.6296,-0.8181 -0.3572,-0.1381 -0.7487,-0.39 -1.1167,-0.7037 -0.5426,-0.4627 -1.0585,-1.0725 -1.3402,-1.6406 -0.7066,0.4515 -1.3862,0.7325 -1.8892,0.939zm2.4846 -1.3592c0.217,0.5026 0.698,1.0775 1.2111,1.5154 0.3054,0.2604 0.6105,0.4691 0.8584,0.5749l0 -0.0087 0.1828 -0.1011c0.6245,-0.3435 0.976,-0.7612 1.2962,-1.2246 -0.4313,-0.1515 -0.9649,-0.471 -1.4574,-0.8682 -0.367,-0.2954 -0.7192,-0.6382 -0.9973,-0.9905 -0.1965,0.2605 -0.4066,0.5023 -0.6318,0.7106 -0.1522,0.1407 -0.3065,0.2713 -0.462,0.3922zm1.5226 -1.7266c0.2497,0.363 0.6221,0.7364 1.0182,1.0552 0.54,0.4353 1.1024,0.7581 1.4305,0.7994l0.1943 -0.2673c0.2705,-0.3695 0.5368,-0.7325 0.6724,-1.1398 -0.3796,-0.1478 -0.8221,-0.4321 -1.2405,-0.7821 -0.4339,-0.3627 -0.8577,-0.8034 -1.1672,-1.2351l-0.2115 0.377c-0.2137,0.3832 -0.4436,0.7951 -0.6962,1.1927zm1.3229 -2.2436c0.2591,0.4461 0.7264,0.9509 1.2132,1.3578 0.3271,0.2734 0.6505,0.4983 0.9067,0.6231l0.0165 -0.0946c0.0277,-0.1568 0.0551,-0.3112 0.0525,-0.4393 -0.0072,-0.358 -0.1611,-0.6954 -0.4047,-1.02 -0.236,-0.3148 -0.5577,-0.6199 -0.9171,-0.9217l-0.0691 0.0133c-0.2065,0.0399 -0.4439,0.0864 -0.6594,0.3112 -0.0432,0.045 -0.0896,0.1026 -0.1386,0.1702zm-25.4954 -8.3318c-0.0799,0.0943 -0.163,0.186 -0.2497,0.2738 -0.8246,0.8361 -1.9543,1.3646 -3.2038,1.3974 -0.0281,0.4663 -0.1231,0.9149 -0.2749,1.3358 0.1838,0.494 0.4688,0.9369 0.8293,1.3024 0.6541,0.6631 1.5593,1.0744 2.5591,1.0744 0.9998,0 1.905,-0.4113 2.5591,-1.0744 0.5516,-0.559 0.9264,-1.2998 1.0322,-2.1266 -1.0034,-0.1605 -1.9025,-0.6437 -2.5897,-1.3406 -0.2504,-0.254 -0.4727,-0.5364 -0.6616,-0.8422zm0.9351 -1.7453c-0.0706,0.2429 -0.1601,0.4785 -0.2663,0.7037 0.1831,0.4246 0.4422,0.8067 0.7599,1.129 0.4842,0.4908 1.1059,0.8437 1.8021,0.9937 -0.1284,-0.7702 -0.4918,-1.4589 -1.0117,-1.9863 -0.3605,-0.3655 -0.7973,-0.6544 -1.284,-0.8401zm-0.0148 -2.735c0.1331,0.4407 0.2051,0.9077 0.2051,1.392 0,0.0885 -0.0025,0.1766 -0.0072,0.2637 0.7123,0.236 1.3502,0.6397 1.868,1.1646 0.7274,0.7375 1.2175,1.7161 1.343,2.8055 0.8635,-0.082 1.6388,-0.4713 2.2177,-1.0581 0.6562,-0.6656 1.0628,-1.588 1.0628,-2.6073 0,-1.0193 -0.4066,-1.9417 -1.0628,-2.6073 -0.6541,-0.6631 -1.5593,-1.0743 -2.5591,-1.0743 -0.9998,0 -1.905,0.4112 -2.5591,1.0743 -0.1921,0.195 -0.363,0.4119 -0.5084,0.6469zm-12.4293 4.4864c0.2115,0.0392 0.4299,0.0594 0.6526,0.0594 0.9999,0 1.9051,-0.4112 2.5591,-1.0743 0.1181,-0.1195 0.2278,-0.2475 0.3285,-0.3825 -0.1101,-0.2914 -0.1928,-0.5968 -0.2446,-0.9124 -0.9732,0.018 -1.8525,0.4253 -2.4919,1.0736 -0.3443,0.349 -0.6195,0.7689 -0.8037,1.2362zm3.2117 -6.2296c-0.654,-0.663 -1.5592,-1.0743 -2.5591,-1.0743 -0.9998,0 -1.905,0.4113 -2.5591,1.0743 -0.6562,0.6656 -1.0628,1.5881 -1.0628,2.6074 0,1.0192 0.4066,1.9417 1.0628,2.6073 0.2594,0.263 0.5588,0.4864 0.8872,0.6602 0.2382,-0.6185 0.6005,-1.1747 1.056,-1.6363 0.8246,-0.8361 1.9543,-1.3646 3.2038,-1.3974 0.0439,-0.7282 0.2504,-1.4125 0.5825,-2.0166 -0.1655,-0.3036 -0.3716,-0.5814 -0.6113,-0.8246zm0.8693 5.8623l-0.1022 0.1072c-0.8516,0.8635 -2.0281,1.3988 -3.3262,1.3988 -0.3069,0 -0.6076,-0.0302 -0.8983,-0.0874 -0.0087,0.1054 -0.0134,0.2123 -0.0134,0.3198 0,1.0193 0.4066,1.9418 1.0628,2.6074 0.6541,0.663 1.5593,1.0743 2.5592,1.0743 0.9998,0 1.905,-0.4113 2.5591,-1.0743 0.291,-0.2954 0.5332,-0.6415 0.7123,-1.024 -0.1086,-0.4011 -0.1665,-0.8231 -0.1665,-1.2585 0,-0.0885 0.0025,-0.1763 0.0071,-0.2637 -0.7123,-0.236 -1.3502,-0.6397 -1.8679,-1.1646 -0.1929,-0.1954 -0.3692,-0.408 -0.526,-0.635zm0.9534 -1.5291c-0.0777,0.2022 -0.1684,0.3976 -0.2716,0.585 0.1651,0.3037 0.3716,0.5811 0.6112,0.8243 0.3605,0.3655 0.7973,0.6544 1.2841,0.8401 0.028,-0.0968 0.0593,-0.1925 0.0932,-0.2868 -0.1839,-0.494 -0.4688,-0.9368 -0.8293,-1.3024 -0.2594,-0.263 -0.5588,-0.4864 -0.8876,-0.6602zm43.0372 -73.0148c-4.1195,-3.0991 -9.7594,-5.9015 -16.7377,-7.2902 -6.9603,-1.3852 -12.6721,-0.8815 -17.0542,0.5533 -5.5795,1.827 -8.9812,5.142 -10.0336,7.9515 -0.0651,0.1767 -0.1338,0.3019 0.1148,0.3681 0.4619,0.1245 1.669,0.2076 2.9034,0.6112 2.4116,0.7887 5.201,1.7007 5.5985,2.5642 0.3044,0.5512 0.1234,0.8048 -0.5436,0.7609 -0.0165,-0.0014 -5.8144,-0.5954 -10.1523,1.0168 -2.3169,0.8613 -4.4515,2.358 -5.8561,4.3979 -1.211,1.7593 -1.8798,3.932 -1.6514,6.4599 0.2983,3.2912 2.2202,8.1583 6.5088,11.3917 3.0387,2.2911 7.156,3.8601 12.865,3.3589 0.6066,-0.0047 0.6091,0.9923 0.1436,1.0667 -2.2897,0.4267 -6.1221,3.047 -8.4232,5.3417 -0.6185,0.617 -1.1103,1.1966 -1.4042,1.6802 -0.2141,0.3518 -0.3174,0.5997 -0.267,0.6904 0.0036,0.0064 0.0295,0.0176 0.0792,0.0334 0.3382,0.1886 0.4036,0.6005 0.2867,0.8095 -1.3833,2.0943 -1.4639,4.4516 -1.5334,6.5009l-0.0057 0.1702 0.0097 -0.0069c0.4022,-0.2863 0.8566,-0.4482 1.3146,-0.4626 0.4717,-0.0148 0.9405,0.1234 1.3557,0.4382 0.1871,0.1414 0.3626,0.318 0.5217,0.5324 0.3849,-0.6166 0.7699,-1.0653 1.153,-1.3639 0.5779,-0.4504 1.1571,-0.5807 1.7306,-0.4429 0.5321,0.1278 1.0257,0.4911 1.4805,1.0423 0.6321,0.7667 1.2153,1.9342 1.7428,3.3503 0.182,-0.1536 0.3828,-0.2839 0.5968,-0.3897 0.4476,-0.2209 0.957,-0.3346 1.4737,-0.3295 0.5156,0.0047 1.0412,0.127 1.5222,0.3756 0.3202,0.1655 0.6224,0.3868 0.8898,0.6659 0.2029,-0.5281 0.4457,-1.084 0.7573,-1.6445 0.4972,-0.8937 1.1642,-1.787 2.1105,-2.5753 0.8167,-3.1787 2.803,-5.6129 5.1405,-7.4269 3.5755,-2.7754 7.9918,-4.1015 10.2311,-4.4207 3.592,-0.5123 5.7277,0.4303 7.2438,1.0992 0.2784,0.123 0.536,0.2363 0.767,0.3245 0.0256,0.0097 0.0317,-0.0569 0.0954,-0.1087 0.2853,-0.2324 0.6044,-0.4918 1.2088,-0.409l0.0421 0.0061c3.6413,0.7919 7.7943,-2.0339 10.3728,-6.0778 0.975,-1.5283 1.7223,-3.233 2.1296,-4.9833 0.4036,-1.7349 0.4716,-3.5115 0.0946,-5.201 -0.8908,-3.9907 -4.2987,-7.5478 -11.6903,-9.0247l-0.8178 -0.1633 0.4846 -0.6779c0.0716,-0.0996 0.2605,-0.1665 0.5422,-0.2079l0.0018 -0.0094 0.0259 0.0054c0.8696,-0.1212 2.5789,-0.0151 4.4379,0.0993 2.1266,0.1313 4.4645,0.4249 5.5064,0.508 0.6372,0.0508 0.6077,0.0263 0.562,-0.6076 -0.1867,-2.5268 -2.9232,-6.6257 -7.8749,-10.3509zm-49.5568 75.5286c-1.1452,0.0489 -2.4051,0.0403 -3.5244,0.0176 0.2044,0.6753 0.3763,1.3211 0.6192,1.9918 1.0027,0.023 2.1583,0.0503 3.224,0.0226 -0.1123,-0.4069 -0.172,-0.8357 -0.172,-1.2783 0,-0.2237 0.0155,-0.4439 0.045,-0.6594 -0.0648,-0.0299 -0.1288,-0.0612 -0.1918,-0.0943zm-2.5249 -3.6302l-1.7565 0c0.0515,0.9444 0.2235,1.8299 0.6243,2.7423 0.8084,0.018 1.6499,0.0309 2.4796,0.0212l-0.0108 -0.0108c-0.7156,-0.7257 -1.2017,-1.6845 -1.3366,-2.7527zm0.7001 -3.17c-0.1835,-0.0022 -0.3691,0.004 -0.5537,0.0101 -0.268,0.0086 -0.5368,0.0172 -0.812,0.0047 -0.2274,-0.0105 -0.4123,-0.0141 -0.6088,-0.0184 -0.332,-0.0068 -0.6936,-0.014 -1.0016,-0.0338 0.0932,0.7692 0.1015,1.4981 0.3476,2.308l1.8985 0c0.0497,-0.8318 0.3109,-1.6075 0.73,-2.2706zm18.7413 9.8878c1.3647,0.0432 2.7387,0.0482 4.1001,0.0191 1.4294,-0.0302 2.8613,-0.0993 4.267,-0.2011 -0.1576,-0.6386 -0.3077,-1.2967 -0.4487,-1.9709 -1.5719,0.0759 -3.2466,0.0335 -4.7915,-0.0061l-0.517 -0.0698c-0.643,0.4202 -1.3935,0.6865 -2.1994,0.7458 -0.0572,0.5246 -0.1986,1.0236 -0.4105,1.483zm4.7559 -6.5584l2.4034 0c-0.09,-0.6573 -0.1713,-1.3225 -0.2422,-1.9925l-0.0942 0.008c-0.2526,0.0208 -0.5062,0.0424 -0.7667,0.0424 -0.2155,0 -0.3904,0.0051 -0.576,0.0101 -0.2576,0.0068 -0.7991,0.0057 -1.278,-0.0022 0.312,0.5825 0.507,1.2384 0.5537,1.9342zm-1.1995 3.5136c1.3618,0.0335 2.8074,0.0619 4.1825,0.0011 -0.1652,-0.8512 -0.3159,-1.7251 -0.4505,-2.6152l-2.5555 0c-0.1184,0.9987 -0.5433,1.9036 -1.1765,2.6141zm20.6798 -34.8623c-0.8393,-0.0385 -1.8755,0.1414 -2.934,0.4731 -1.1088,0.3468 -2.2277,0.8563 -3.165,1.4532 -1.6078,1.0235 -3.1016,2.0752 -4.4033,3.2621 -1.2794,1.1668 -2.371,2.4656 -3.1981,4.0015 -1.8723,3.4751 -2.6523,8.2573 -2.7066,13.2546 -0.0669,6.1505 0.9646,12.6081 2.4145,17.3857 0.5493,1.8097 1.4837,3.5326 2.4529,4.8581 0.9322,1.2747 1.8346,2.154 2.3764,2.3249 0.1799,-0.1058 0.4065,-0.199 0.6767,-0.3098 0.6725,-0.276 1.7068,-0.7012 2.5887,-1.5172 0.5662,-0.5238 1.0757,-1.4366 1.5114,-2.2177 0.3425,-0.6145 0.6458,-1.1574 0.9566,-1.4816 0.4911,-0.5126 0.9391,-0.5997 1.3287,-0.6753 0.1655,-0.0316 0.3011,-0.0582 0.3727,-0.3306 0.5358,-2.0317 -0.2263,-3.46 -0.7371,-4.4174 -0.371,-0.6954 -0.6462,-1.211 -0.4375,-1.7697l0.0529 -0.1411 0.1118 -0.1025c0.8139,-0.7444 1.7029,-1.8608 2.6707,-3.3129 0.9854,-1.4779 2.0374,-3.283 3.1643,-5.3805 0.282,-0.5245 0.526,-0.6238 0.7717,-0.7231 0.0324,-0.013 0.0662,-0.027 0.1245,-0.1281 0.0647,-0.1126 0.0428,-0.3799 0.0208,-0.6465 -0.0431,-0.5224 -0.087,-1.0459 0.2969,-1.5374 0.7969,-1.0207 1.5236,-1.9942 2.0993,-3.0369 0.7864,-1.4258 1.901,-4.5228 1.9762,-6.1724 0.1483,-3.2207 -0.8537,-6.3127 -2.0432,-8.693l-0.0021 0c-1.1502,-2.3026 -2.9606,-3.9334 -5.4751,-4.3321l0 -0.0003c-0.2778,-0.0436 -0.5671,-0.0734 -0.8657,-0.0871zm-34.3586 31.2393c0.5166,0.2389 0.9836,0.5699 1.3801,0.9718 0.2605,0.2641 0.4908,0.5591 0.6847,0.8793 0.1425,-0.1968 0.2993,-0.3821 0.4691,-0.5544 0.7754,-0.7861 1.8205,-1.3003 2.9812,-1.3859 0.059,-0.5389 0.2065,-1.0509 0.4281,-1.5204 -0.1828,-0.4246 -0.4422,-0.807 -0.7598,-1.1294 -0.6541,-0.663 -1.5593,-1.0743 -2.5592,-1.0743 -0.9998,0 -1.905,0.4113 -2.5591,1.0743 -0.118,0.1195 -0.2277,0.2476 -0.3285,0.3828 0.1994,0.5275 0.3084,1.0995 0.3084,1.6968 0,0.2237 -0.0155,0.4439 -0.045,0.6594zm3.7136 -96.2397c-4.4968,0.3249 -8.5275,3.6817 -8.499,7.8202 0.0266,3.8572 4.0806,7.3435 5.9529,6.5016 1.1603,-0.5217 2.9264,-1.8906 5.2708,-2.7825 1.642,-0.6246 3.6305,-1.0078 5.6323,-1.4877 1.0502,-0.2515 0.8297,-1.9849 0.8297,-3.0841 0,-4.1385 -4.6898,-7.2923 -9.1867,-6.9675zm53.0651 9.5378c-3.265,-4.0644 -8.1239,-4.993 -11.0964,-3.3218 -3.2441,1.824 -4.2155,6.9232 -2.6174,8.0925 0.9905,0.7246 2.6577,1.7974 4.5228,3.3391 1.306,1.0797 2.172,1.9162 3.528,3.3668 0.7106,0.7606 2.4246,-0.2094 3.3467,-0.7332 3.4719,-1.9723 5.5816,-6.679 2.3163,-10.7434zm-42.9259 13.8445c3.1602,0 5.7229,2.2251 5.7229,4.9691 0,1.1577 -0.0787,2.2919 -0.9499,3.0052 -0.4359,0.3561 -2.4637,-0.4247 -3.5738,-0.9262 -0.4577,-0.207 -0.9789,-0.862 -0.4433,-1.1643 0.5609,-0.3171 0.6009,-1.3957 -0.7774,-1.5215 -1.378,-0.1254 -1.01,0.8687 -0.7708,1.3357 0.1762,0.3453 -0.3049,0.6387 -0.7481,0.7975 -0.7366,0.2648 -4.2032,-0.2252 -4.1828,-1.5264 0.0438,-2.7433 2.5626,-4.9691 5.7232,-4.9691zm18.3562 3.754c3.1588,0.0965 5.6524,2.3987 5.569,5.1413 -0.0353,1.1572 -0.1488,2.2885 -1.0412,2.9747 -0.4462,0.3427 -2.4495,-0.4992 -3.5437,-1.0345 -0.4514,-0.221 -0.9522,-0.8913 -0.4077,-1.1776 0.5701,-0.2994 0.5,-1.6402 -0.7277,-1.8075 -1.2281,-0.1676 -1.0386,1.1009 -0.8142,1.5745 0.1658,0.3502 -0.3241,0.6291 -0.7718,0.7749 -0.7445,0.2418 -4.1947,-0.3535 -4.1346,-1.6536 0.1272,-2.7403 2.7132,-4.8886 5.8719,-4.7922zm-18.073 12.318c-0.5514,2.3887 0.2342,3.9369 1.8499,5.0939 0.7616,0.5454 1.6611,0.9441 2.6145,1.1783 0.9636,0.2371 1.9837,0.3079 2.9736,0.1958 2.343,-0.2655 4.7756,-1.4214 5.5453,-4.0321 0.3054,-0.9161 2.4625,-0.2095 2.1177,0.6225 -1.0607,3.5973 -4.2582,5.2474 -7.4211,5.6055 -1.2428,0.1405 -2.5266,0.0512 -3.7429,-0.2482 -1.227,-0.3017 -2.3884,-0.8169 -3.3749,-1.5236 -2.3014,-1.6478 -3.4992,-3.9838 -2.7144,-7.3849 0.2131,-0.9316 2.4027,-0.4551 2.1523,0.4928zm7.4047 -5.8984c3.5691,0.3402 5.3154,1.9697 5.3154,3.927 0,0.8512 -0.483,1.6333 -1.2866,2.2437 -0.5674,0.4314 -1.6356,0.1839 -2.4675,0.4099 -0.6978,0.1895 -1.1318,0.8911 -1.9426,0.8911 -0.4657,0 -1.0433,-0.136 -1.4461,-0.3681 -0.5719,-0.3289 -0.3794,-0.4212 -1.0093,-1.1424 -0.7792,-0.8914 -2.0794,-0.4506 -2.6905,-1.5116 -0.3463,-0.6017 -0.5509,-1.2105 -0.5509,-1.7554 0,-1.9573 2.5089,-3.0345 6.0781,-2.6942zm7.6554 2.765c-2.5904,-2.1378 -6.0579,-3.6129 -9.8813,-3.6129 -0.3835,0 -0.748,0.0093 -1.0916,0.0281 -3.6899,0.2007 -7.0711,1.4164 -9.5244,3.3992 -2.4149,1.9518 -3.9263,4.6559 -3.9263,7.8665 0,0.2058 0.005,0.3972 0.014,0.571 0.1846,3.3945 1.8968,6.1897 4.4458,8.1857 2.8023,2.195 6.6113,3.4312 10.529,3.4518l0.2918 -0.0008c3.6614,-0.0403 7.1153,-1.2131 9.6539,-3.2329 2.5081,-1.9947 4.1188,-4.8207 4.1361,-8.1933l-0.0004 -0.1788c-0.0313,-2.8239 -1.8104,-5.9436 -4.6466,-8.2836z"/>
</g>
<metadata><rdf:RDF><cc:Work><dc:format>image/svg+xml</dc:format><dc:type rdf:resource="http://purl.org/dc/dcmitype/StillImage"/><cc:license rdf:resource="http://creativecommons.org/licenses/publicdomain/"/><dc:publisher><cc:Agent rdf:about="http://openclipart.org/"><dc:title>Open Clip Art Library</dc:title></cc:Agent></dc:publisher><dc:title>Olympic Bear</dc:title><dc:date>2011-07-14T09:43:03</dc:date><dc:description/><dc:source>http://openclipart.org/detail/149593/olympic-bear-by-lantaire</dc:source><dc:creator><cc:Agent><dc:title>Lantaire</dc:title></cc:Agent></dc:creator><dc:subject><rdf:Bag><rdf:li>1980</rdf:li><rdf:li>1980</rdf:li><rdf:li>Moscow</rdf:li><rdf:li>Moscow</rdf:li><rdf:li>Olympic Bear</rdf:li><rdf:li>Olympic Games</rdf:li><rdf:li>Russia</rdf:li><rdf:li>USSR</rdf:li><rdf:li>clip art</rdf:li><rdf:li>clipart</rdf:li></rdf:Bag></dc:subject></cc:Work><cc:License rdf:about="http://creativecommons.org/licenses/publicdomain/"><cc:permits rdf:resource="http://creativecommons.org/ns#Reproduction"/><cc:permits rdf:resource="http://creativecommons.org/ns#Distribution"/><cc:permits rdf:resource="http://creativecommons.org/ns#DerivativeWorks"/></cc:License></rdf:RDF></metadata></svg>